<svg width="640" height="480" viewBox="0 0 640 480" fill="none" xmlns="http://www.w3.org/2000/svg">
  <rect width="640" height="480" rx="36" fill="#F0FDF4"/>
  <rect x="243" y="114" width="154" height="232" rx="26" fill="#DCFCE7" stroke="#86EFAC" stroke-width="8"/>
  <rect x="264" y="136" width="112" height="188" rx="18" fill="#F59E0B"/>
  <rect x="298" y="84" width="44" height="42" rx="10" fill="#D1FAE5"/>
  <rect x="316" y="58" width="8" height="42" rx="4" fill="#16A34A"/>
  <path d="M324 54C324 39.0883 336.088 27 351 27C375.853 27 392.091 54.2562 372.698 69.7986C349.331 88.5293 324 74.3952 324 54Z" fill="#22C55E"/>
  <path d="M313 185C313 171.193 324.193 160 338 160C351.807 160 363 171.193 363 185C363 198.807 351.807 210 338 210C324.193 210 313 198.807 313 185Z" fill="#FDE68A"/>
  <path d="M302 240C302 224.536 314.536 212 330 212H349C364.464 212 377 224.536 377 240V280H302V240Z" fill="#FEF3C7"/>
  <text x="48" y="74" fill="#166534" font-family="Arial, sans-serif" font-size="30" font-weight="700">Apple Juice</text>
</svg>
