<svg width="640" height="480" viewBox="0 0 640 480" fill="none" xmlns="http://www.w3.org/2000/svg">
  <rect width="640" height="480" rx="36" fill="#F8FAFC"/>
  <rect x="142" y="92" width="170" height="286" rx="18" fill="#F97316"/>
  <rect x="328" y="92" width="170" height="286" rx="18" fill="#FB923C"/>
  <rect x="304" y="92" width="24" height="286" fill="#7C2D12"/>
  <path d="M168 140C168 126.745 178.745 116 192 116H264C277.255 116 288 126.745 288 140V330H192C178.745 330 168 319.255 168 306V140Z" fill="#FFEDD5"/>
  <path d="M352 140C352 126.745 362.745 116 376 116H448C461.255 116 472 126.745 472 140V306C472 319.255 461.255 330 448 330H352V140Z" fill="#FFF7ED"/>
  <line x1="212" y1="166" x2="256" y2="166" stroke="#EA580C" stroke-width="8" stroke-linecap="round"/>
  <line x1="212" y1="198" x2="268" y2="198" stroke="#FB923C" stroke-width="8" stroke-linecap="round"/>
  <line x1="212" y1="230" x2="256" y2="230" stroke="#FDBA74" stroke-width="8" stroke-linecap="round"/>
  <line x1="384" y1="166" x2="428" y2="166" stroke="#EA580C" stroke-width="8" stroke-linecap="round"/>
  <line x1="384" y1="198" x2="440" y2="198" stroke="#FB923C" stroke-width="8" stroke-linecap="round"/>
  <line x1="384" y1="230" x2="428" y2="230" stroke="#FDBA74" stroke-width="8" stroke-linecap="round"/>
  <text x="48" y="74" fill="#9A3412" font-family="Arial, sans-serif" font-size="30" font-weight="700">Book</text>
</svg>
